<?xml version="1.0" ?>
<!-- Uploaded to: SVG Repo, www.svgrepo.com, Generator: SVG Repo Mixer Tools -->
<svg width="800px" height="800px" viewBox="0 0 256 256" xmlns="http://www.w3.org/2000/svg">
<path d="m159.29 170.57c-.48-2-8.3-3.2-32.68-3.2-23 0-28.16 4.79-28.79 5.94-1.29 2.34-.24 31.5 2.92 37.59 2.85 5.5 7.39 6.67 10.47 7.22.52 3.28 2.43 9.25 4.87 12.28 3.34 4.16 18.68 3.22 22.37.06 3-2.59 6.52-9.68 7-12.92 3.49-.57 8.58-1.85 10.65-7.26 2.03-5.28 4.12-35.85 3.19-39.71z" fill="#191919"/>
<path d="m126.16 241.17c-1.36 0-2.58-.06-3.57-.15-5.92-.55-10.21-2.44-12.76-5.61a34.16 34.16 0 0 1 -5.28-10.84 20.64 20.64 0 0 1 -10.92-10c-2-3.79-3.32-11.66-4-23.41-1.05-17.66.4-20.3 1.18-21.72 2.53-4.6 10.8-10.09 35.8-10.09 12 0 20.58.3 26.17.91 4.4.48 12.58 1.37 14.28 8.41 1.42 5.87-1.1 38.28-3.46 44.46-2.05 5.36-6 9.07-11.86 11.07-1.86 4.54-5 9.63-8.09 12.32-4.29 3.69-12.03 4.65-17.49 4.65zm-4.29-16.43c2.58.8 9.19.5 11.59-.57a24.5 24.5 0 0 0 4.12-7.9 8 8 0 0 1  6.62-6.63c3.84-.62 4.21-1.58 4.45-2.22 1.2-3.63 2.69-22.29 2.87-31.2-3.61-.41-10.78-.86-24.92-.86-12.63 0-18.72 1.53-21.29 2.48-.08 2.75 0 7.52.35 13.51.69 10.53 1.83 15.06 2.21 15.92 1 2 2.3 2.52 4.74 3a8 8 0 0 1 6.5 6.61 27.05 27.05 0 0 0  2.76 7.86z" fill="#191919"/>
<path d="m195 93.67a66.15 66.15 0 1 0 -112.69 47c9.43 9.34 15.2 28.3 15.12 37.55s61.39 4.45 61.85-.17c1.24-12.48 6.21-27.91 15.32-36.63a65.92 65.92 0 0 0 20.4-47.75z" fill="#191919"/>
<path d="m120.66 191.5c-2.75 0-5.38-.06-7.82-.2a59.45 59.45 0 0 1 -13.14-1.89c-9-2.63-10.28-8.19-10.25-11.27.07-7.65-5.25-24.37-12.75-31.79a74.15 74.15 0 1 1 126.3-52.68 73.48 73.48 0 0 1 -22.87 53.54c-8 7.61-11.92 21.8-12.89 31.64-.74 7.43-8.11 9.57-23.34 11.31a210.66 210.66 0 0 1 -23.24 1.34zm-15.42-17.15c3.67.8 11.58 1.51 23.68 1a145.83 145.83 0 0 0 23-2.58c2-12.49 7.3-27.64 17.16-37.08a58.1 58.1 0 1 0 -98.27-45.38 58.3 58.3 0 0 0  17.19 44.69c10.08 10 16.08 28.05 17.24 39.35z" fill="#191919"/>
<g>
<path d="m5.57 106.62c-2.2 2.11 5.12 34.74 7 36.38s26-21.29 25.37-24.4-30.17-14.09-32.37-11.98z" fill="#191919"/>
<path d="m12.74 151.08a8.33 8.33 0 0 1 -5.52-2.08c-1.64-1.47-3.22-2.85-6.72-18.66-1-4.32-3.23-15-3.34-21 0-1.68-.1-5.61 2.87-8.46 3.91-3.74 9.16-2.94 18.74.12a148.24 148.24 0 0 1 15 5.72c7.11 3.21 11.13 5.82 12 10.42 1 5.25-2.8 10.09-11.71 18.93-1.74 1.73-10.68 10.49-15.94 13.48a10.85 10.85 0 0 1 -5.38 1.53zm1.26-34.86c.73 4.31 1.82 9.58 2.87 14 3.2-2.9 6.82-6.42 9.55-9.33-3.66-1.58-8.42-3.36-12.42-4.67z" fill="#191919"/>
</g>
<g>
<path d="m213.84 134c-2 2.26 7.62 34.28 9.58 35.78s24.36-23.12 23.54-26.17-31.08-11.92-33.12-9.61z" fill="#191919"/>
<path d="m223.6 177.81a8.36 8.36 0 0 1 -5-1.72c-1.74-1.33-3.38-2.59-8.05-18.11-1.28-4.24-4.31-14.75-4.85-20.75-.15-1.67-.51-5.58 2.25-8.64 3.63-4 8.92-3.6 18.71-1.24a148.16 148.16 0 0 1 15.34 4.65c7.32 2.69 11.51 5 12.72 9.52 1.38 5.17-2.06 10.26-10.3 19.73-1.61 1.85-9.89 11.23-14.92 14.6a10.49 10.49 0 0 1 -5.9 1.96zm-.6-34.88c1 4.24 2.51 9.42 3.88 13.77 3-3.12 6.33-6.9 8.85-10-3.83-1.33-8.68-2.76-12.73-3.77z" fill="#191919"/>
</g>
<g>
<path d="m213.07 33.94c-2 1.55 1.22 29 2.6 30.55s23.21-15.29 23-17.9-23.61-14.2-25.6-12.65z" fill="#191919"/>
<path d="m215.93 72.57a8.41 8.41 0 0 1 -6.16-2.69c-1.44-1.57-2.68-2.93-4.28-16.69-.43-3.68-1.38-12.8-.94-17.89.12-1.43.45-5.22 3.62-7.68 4.46-3.45 10-1.45 16.81 1.53 21 9.21 21.41 13.93 21.65 16.75.39 4.57-2.25 8.1-11.77 15.77-1.6 1.29-9.84 7.83-14.59 9.91a10.76 10.76 0 0 1 -4.34.99zm4.8-27.79c.18 2.28.43 4.75.7 7.08 1.76-1.33 3.58-2.77 5.19-4.12-1.86-.99-3.92-2.03-5.89-2.96z" fill="#191919"/>
</g>
<g>
<path d="m5.57 106.62c-2.2 2.11 5.12 34.74 7 36.38s26-21.29 25.37-24.4-30.17-14.09-32.37-11.98z" fill="#ffffff"/>
</g>
<g>
<path d="m213.84 134c-2 2.26 7.62 34.28 9.58 35.78s24.36-23.12 23.54-26.17-31.08-11.92-33.12-9.61z" fill="#ffffff"/>
</g>
<g>
<path d="m213.07 33.94c-2 1.55 1.22 29 2.6 30.55s23.21-15.29 23-17.9-23.61-14.2-25.6-12.65z" fill="#ffffff"/>
</g>
<g>
<path d="m159.29 170.57c-.48-2-8.3-3.2-32.68-3.2-23 0-28.16 4.79-28.79 5.94-1.29 2.34-.24 31.5 2.92 37.59 2.85 5.5 7.39 6.67 10.47 7.22.52 3.28 2.43 9.25 4.87 12.28 3.34 4.16 18.68 3.22 22.37.06 3-2.59 6.52-9.68 7-12.92 3.49-.57 8.58-1.85 10.65-7.26 2.03-5.28 4.12-35.85 3.19-39.71z" fill="#e83a2a"/>
<path d="m195 93.67a66.15 66.15 0 1 0 -112.69 47c9.43 9.34 15.2 28.3 15.12 37.55s61.39 4.45 61.85-.17c1.24-12.48 6.21-27.91 15.32-36.63a65.92 65.92 0 0 0 20.4-47.75z" fill="#ffffff"/>
</g>
<g>
<path d="m111.5 68.12c-4.48 2.74-4.12 60.38-1.61 63.81s51.53-26.34 51.67-31.78-45.56-34.77-50.06-32.03z" fill="#e83a2a"/>
</g>
</svg>