<svg width="42" height="42" viewBox="0 0 42 42" fill="none" xmlns="http://www.w3.org/2000/svg">
<g clip-path="url(#clip0_84_8)">
<path d="M21 42C32.598 42 42 32.598 42 21C42 9.40202 32.598 0 21 0C9.40202 0 0 9.40202 0 21C0 32.598 9.40202 42 21 42Z" fill="#007ABF"/>
<path d="M21 42C32.598 42 42 32.598 42 21C42 9.40202 32.598 0 21 0C9.40202 0 0 9.40202 0 21C0 32.598 9.40202 42 21 42Z" fill="white" fill-opacity="0.9"/>
<path d="M25 17L17 25" stroke="#00C2FF" stroke-width="2" stroke-linecap="round" stroke-linejoin="round"/>
<path d="M25 25L17 17" stroke="#00C2FF" stroke-width="2" stroke-linecap="round" stroke-linejoin="round"/>
</g>
<defs>
<clipPath id="clip0_84_8">
<rect width="42" height="42" fill="white"/>
</clipPath>
</defs>
</svg>
