<svg width="564" height="597" viewBox="0 0 564 597" fill="none" xmlns="http://www.w3.org/2000/svg">
<g clip-path="url(#clip0_82_2)">
<path opacity="0.2" d="M282.5 597C426.37 597 543 480.37 543 336.5C543 192.63 426.37 76 282.5 76C138.63 76 22 192.63 22 336.5C22 480.37 138.63 597 282.5 597Z" fill="url(#paint0_linear_82_2)"/>
<path opacity="0.2" d="M282.074 508.32C377.203 508.32 454.32 431.203 454.32 336.074C454.32 240.945 377.203 163.828 282.074 163.828C186.945 163.828 109.828 240.945 109.828 336.074C109.828 431.203 186.945 508.32 282.074 508.32Z" fill="url(#paint1_linear_82_2)"/>
<path opacity="0.2" d="M282.074 413.67C324.929 413.67 359.67 378.929 359.67 336.074C359.67 293.219 324.929 258.479 282.074 258.479C239.219 258.479 204.479 293.219 204.479 336.074C204.479 378.929 239.219 413.67 282.074 413.67Z" fill="#89DEF1"/>
<g opacity="0.1" filter="url(#filter0_f_82_2)">
<path d="M282.074 467.39C384.267 467.39 467.11 384.546 467.11 282.354C467.11 180.161 384.267 97.3179 282.074 97.3179C179.882 97.3179 97.0381 180.161 97.0381 282.354C97.0381 384.546 179.882 467.39 282.074 467.39Z" fill="#00B3FF" fill-opacity="0.85"/>
</g>
</g>
<defs>
<filter id="filter0_f_82_2" x="0.438087" y="0.717873" width="563.272" height="563.272" filterUnits="userSpaceOnUse" color-interpolation-filters="sRGB">
<feFlood flood-opacity="0" result="BackgroundImageFix"/>
<feBlend mode="normal" in="SourceGraphic" in2="BackgroundImageFix" result="shape"/>
<feGaussianBlur stdDeviation="48.3" result="effect1_foregroundBlur_82_2"/>
</filter>
<linearGradient id="paint0_linear_82_2" x1="282.5" y1="76" x2="282.5" y2="597" gradientUnits="userSpaceOnUse">
<stop stop-color="#C7FBFB"/>
<stop offset="0.03" stop-color="#C8FCFC"/>
<stop offset="1" stop-color="white"/>
</linearGradient>
<linearGradient id="paint1_linear_82_2" x1="282.074" y1="163.828" x2="282.074" y2="508.319" gradientUnits="userSpaceOnUse">
<stop stop-color="#9FE8F8"/>
<stop offset="1" stop-color="white"/>
</linearGradient>
<clipPath id="clip0_82_2">
<rect width="564" height="597" fill="white"/>
</clipPath>
</defs>
</svg>
